<svg width="1903" height="1021" viewBox="0 0 1903 1021" fill="none" xmlns="http://www.w3.org/2000/svg">
<g clip-path="url(#clip0_1_2474)">
<g opacity="0.16">
<path d="M0.0283817 214.593C5.50371 203.176 10.9111 191.731 16.202 180.236C51.8109 102.805 83.2261 23.753 112.253 -61.4541C132.737 -121.586 151.289 -182.377 170.637 -252.78C184.772 -304.222 196.091 -348.724 207.401 -393.555C217.022 -431.737 224.575 -469.142 229.827 -504.721C235.059 -540.175 238.069 -573.182 238.758 -602.831C239.389 -630.207 237.603 -654.535 233.885 -669.573C232.03 -677.029 229.341 -683.436 226.497 -687.164C225.041 -689.077 223.439 -690.533 221.73 -691.484C220.886 -691.96 219.983 -692.319 219.07 -692.562C218.556 -692.698 218.061 -692.785 217.643 -692.833C217.381 -692.872 217.129 -692.892 216.915 -692.902L216.148 -692.921L216.167 -696.426C216.167 -696.426 216.682 -696.426 217.051 -696.396C217.313 -696.387 217.624 -696.358 217.944 -696.319C218.459 -696.26 219.051 -696.154 219.682 -695.989C220.818 -695.688 221.915 -695.251 222.963 -694.668C225.011 -693.523 226.934 -691.795 228.652 -689.543C231.778 -685.436 234.71 -678.534 236.69 -670.583C240.496 -655.205 242.311 -630.479 241.69 -602.743C240.991 -572.92 237.972 -539.738 232.71 -504.12C227.429 -468.394 219.857 -430.863 210.197 -392.546C198.878 -347.685 187.558 -303.154 173.404 -251.682C154.036 -181.202 135.455 -120.333 114.952 -60.1242C85.886 25.2092 54.4127 104.388 18.7552 181.935C12.6488 195.206 6.39684 208.419 0.0283813 221.583L0.0283817 214.593Z" fill="url(#paint0_linear_1_2474)"/>
<path d="M0.0287478 457.701C49.258 369.426 93.7692 276.229 132.3 180.528C163.473 103.087 190.975 24.0059 216.401 -61.2498C234.312 -121.352 250.563 -182.192 267.523 -252.701C279.93 -304.29 289.822 -348.743 299.695 -393.506C308.112 -431.678 314.723 -469.122 319.335 -504.828C323.917 -540.301 326.538 -573.279 327.14 -602.84C327.703 -630.644 326.179 -654.38 322.868 -669.641C321.247 -677.106 318.888 -683.523 316.393 -687.261C315.121 -689.163 313.733 -690.6 312.267 -691.532C311.549 -691.989 310.782 -692.338 310.005 -692.571C309.569 -692.697 309.151 -692.784 308.802 -692.833C308.578 -692.862 308.365 -692.882 308.18 -692.901L307.53 -692.921L307.549 -696.425C307.549 -696.425 308.006 -696.425 308.345 -696.396C308.578 -696.386 308.86 -696.357 309.151 -696.309C309.607 -696.241 310.141 -696.134 310.714 -695.969C311.733 -695.658 312.714 -695.212 313.646 -694.619C315.461 -693.464 317.151 -691.726 318.675 -689.445C321.412 -685.339 323.966 -678.436 325.694 -670.514C329.062 -654.943 330.596 -630.886 330.062 -602.743C329.46 -573.027 326.82 -539.893 322.218 -504.274C317.587 -468.452 310.957 -430.882 302.511 -392.594C292.628 -347.811 282.736 -303.338 270.319 -251.711C253.34 -181.124 237.079 -120.226 219.138 -60.046C193.684 25.3262 166.142 104.524 134.922 182.071C95.6915 279.501 50.3066 374.368 0.019165 464.079L0.0191653 457.701L0.0287478 457.701Z" fill="url(#paint1_linear_1_2474)"/>
<path d="M0.0291445 703.227C48.307 626.359 92.7115 546.025 132.456 463.458C175.705 373.562 214.731 278.463 248.438 180.81C275.173 103.321 298.774 24.2003 320.558 -61.0554C335.946 -121.245 349.877 -182.124 364.409 -252.633C375.049 -304.231 383.524 -348.694 391.99 -393.458C399.213 -431.649 404.882 -469.151 408.843 -504.915C412.765 -540.388 415.017 -573.327 415.532 -602.84C416.017 -630.663 414.707 -654.419 411.862 -669.709C410.464 -677.193 408.435 -683.63 406.3 -687.377C404.96 -689.726 403.659 -690.969 402.814 -691.61C402.222 -692.047 401.591 -692.386 400.96 -692.61C400.601 -692.726 400.261 -692.813 399.98 -692.862C399.543 -692.93 398.941 -692.94 398.921 -692.94L398.97 -696.444C398.97 -696.444 399.785 -696.425 400.378 -696.328C400.785 -696.26 401.251 -696.153 401.766 -695.978C402.669 -695.668 403.542 -695.192 404.358 -694.59C405.911 -693.435 407.426 -691.62 408.707 -689.367C411.047 -685.271 413.241 -678.387 414.716 -670.485C417.609 -654.933 418.93 -630.876 418.454 -602.781C417.939 -573.143 415.677 -540.068 411.746 -504.469C407.775 -468.588 402.086 -430.979 394.844 -392.691C386.379 -347.908 377.894 -303.435 367.254 -251.798C352.702 -181.221 338.751 -120.284 323.354 -60.036C301.54 25.3265 277.921 104.544 251.136 182.14C217.382 279.929 178.297 375.164 134.98 465.196C94.5463 549.2 49.2778 630.883 0.0291443 708.974L0.0291445 703.227Z" fill="url(#paint2_linear_1_2474)"/>
<path d="M0.0296023 962.916C105.361 810.985 196.898 640.814 267.99 463.575C304.007 373.737 336.509 278.695 364.594 181.091C386.894 103.573 406.562 24.4331 424.726 -60.8517C437.54 -121.022 449.161 -181.93 461.296 -252.546C470.13 -303.96 477.207 -348.51 484.284 -393.39C490.313 -431.6 495.031 -469.151 498.332 -504.983C501.594 -540.447 503.467 -573.366 503.895 -602.84C504.302 -631.09 503.244 -654.244 500.837 -669.777C499.672 -677.281 497.973 -683.746 496.186 -687.504C495.08 -689.833 494.012 -691.066 493.323 -691.688C492.847 -692.105 492.352 -692.426 491.857 -692.639C491.585 -692.756 491.332 -692.823 491.109 -692.872C490.779 -692.94 490.313 -692.95 490.294 -692.95L490.352 -696.454C490.352 -696.454 491.07 -696.435 491.585 -696.328C491.944 -696.26 492.362 -696.134 492.818 -695.95C493.594 -695.62 494.352 -695.134 495.07 -694.503C496.39 -693.319 497.652 -691.503 498.73 -689.241C500.672 -685.154 502.497 -678.291 503.71 -670.417C506.157 -654.652 507.224 -631.265 506.817 -602.782C506.39 -573.201 504.506 -540.175 501.235 -504.605C497.924 -468.685 493.187 -431.047 487.148 -392.749C480.071 -347.85 472.984 -303.29 464.15 -251.847C452.015 -181.182 440.385 -120.216 427.551 -59.9878C409.368 25.3844 389.67 104.621 367.352 182.237C339.227 279.967 306.676 375.135 270.611 465.099C198.908 643.852 106.459 815.441 0.0200195 968.41L0.0200198 962.916L0.0296023 962.916Z" fill="url(#paint3_linear_1_2474)"/>
<path d="M0.029175 1249.98C42.1133 1195.94 81.9551 1139.61 118.991 1081.42C234.604 899.629 330.344 691.8 403.533 463.711C432.336 373.902 458.335 278.899 480.789 181.363C498.632 103.845 514.379 24.6858 528.921 -60.6572C539.183 -120.895 548.483 -181.842 558.191 -252.458C565.268 -303.979 570.928 -348.48 576.578 -393.321C581.403 -431.571 585.189 -469.151 587.83 -505.031C590.441 -540.534 591.936 -573.434 592.276 -602.82C592.587 -631.09 591.752 -654.263 589.829 -669.825C588.888 -677.368 587.529 -683.853 586.092 -687.629C585.16 -690.085 584.267 -691.299 583.811 -691.794C583.364 -692.289 582.985 -692.541 582.743 -692.667C582.558 -692.765 582.383 -692.823 582.238 -692.862C582.005 -692.92 581.694 -692.92 581.675 -692.92L581.743 -696.425C581.743 -696.425 582.374 -696.405 582.83 -696.289C583.141 -696.211 583.51 -696.085 583.898 -695.881C584.558 -695.531 585.199 -695.027 585.801 -694.357C586.869 -693.163 587.888 -691.338 588.752 -689.085C590.325 -684.959 591.732 -678.309 592.722 -670.339C594.674 -654.593 595.538 -631.216 595.208 -602.771C594.868 -573.298 593.363 -540.31 590.752 -504.721C588.102 -468.772 584.315 -431.115 579.481 -392.797C573.831 -347.956 568.171 -303.435 561.084 -251.895C551.366 -181.231 542.066 -120.245 531.795 -59.968C517.233 25.4528 501.477 104.689 483.614 182.286C461.13 279.938 435.103 375.038 406.271 464.963C332.975 693.363 237.099 901.483 121.321 1083.54C83.5958 1142.81 42.9968 1200.17 0.0388794 1255.14L0.0388796 1249.98L0.029175 1249.98Z" fill="url(#paint4_linear_1_2474)"/>
<path d="M0.0290529 1574.89C230.895 1322.86 431.89 909.065 539.076 463.856C560.666 374.096 580.16 279.132 597.004 181.606C610.391 104.068 622.205 24.8799 633.117 -60.4923C640.825 -120.798 647.806 -181.774 655.077 -252.381C660.756 -307.483 665.445 -357.062 668.872 -393.254C672.493 -431.532 675.328 -469.151 677.308 -505.061C679.269 -540.572 680.386 -573.463 680.648 -602.81C680.89 -631.167 680.25 -654.331 678.803 -669.883C678.085 -677.572 677.085 -683.931 675.988 -687.785C675.464 -689.6 674.842 -691.134 674.27 -691.979C673.949 -692.444 673.687 -692.668 673.561 -692.755C673.454 -692.833 673.163 -692.91 672.978 -692.93L673.182 -696.425C673.357 -696.415 674.27 -696.308 675.017 -695.794C675.561 -695.415 676.066 -694.871 676.541 -694.182C677.337 -692.998 678.104 -691.182 678.745 -688.92C679.929 -684.775 680.958 -678.319 681.706 -670.271C683.162 -654.573 683.813 -631.226 683.56 -602.771C683.308 -573.356 682.182 -540.398 680.221 -504.818C678.24 -468.85 675.396 -431.183 671.775 -392.846C668.348 -356.645 663.659 -307.056 657.97 -251.934C650.689 -181.299 643.709 -120.284 635.991 -59.9486C625.069 25.4818 613.245 104.728 599.848 182.324C582.985 279.938 563.482 374.989 541.862 464.837C490.167 679.539 415.056 892.96 324.636 1082.02C228.711 1282.61 119.515 1449.89 0 1579.64L2.07508e-07 1574.89L0.0290529 1574.89Z" fill="url(#paint5_linear_1_2474)"/>
<path d="M0.0289919 1907.83C15.3482 1899.04 30.6578 1889.35 45.7538 1878.8C137.271 1814.76 230.623 1710.79 308.608 1586.05C392.951 1451.04 470.285 1276.81 532.232 1082.2C590.101 900.279 638.01 692.285 674.638 464.011C689.035 374.232 702.025 279.278 713.257 181.819C722.188 104.233 730.061 25.025 737.342 -60.3374C742.478 -120.644 747.138 -181.639 751.992 -252.294C755.545 -304.028 758.37 -348.461 761.185 -393.186C763.603 -431.552 765.496 -469.2 766.816 -505.071C768.127 -540.534 768.874 -573.415 769.039 -602.801C769.204 -631.139 768.777 -654.351 767.806 -669.942C767.321 -677.776 766.661 -684.009 765.913 -687.96C765.554 -689.814 765.136 -691.377 764.738 -692.241C764.515 -692.727 764.35 -692.921 764.311 -692.93L764.641 -696.416C764.855 -696.386 765.612 -696.241 766.243 -695.59C766.631 -695.183 766.991 -694.619 767.311 -693.901C767.835 -692.736 768.33 -690.95 768.758 -688.737C769.544 -684.62 770.223 -678.213 770.719 -670.204C771.699 -654.302 772.107 -631.615 771.951 -602.772C771.777 -573.337 771.029 -540.418 769.719 -504.916C768.398 -469.006 766.505 -431.329 764.088 -392.914C761.273 -348.179 758.448 -303.746 754.885 -252.002C750.031 -181.319 745.371 -120.304 740.235 -59.9782C732.954 25.4329 725.071 104.679 716.14 182.305C704.908 279.831 691.909 374.843 677.502 464.681C640.845 693.159 592.877 901.347 534.95 1083.46C472.906 1278.38 395.446 1452.9 310.938 1588.16C232.72 1713.26 139.057 1817.56 47.2197 1881.82C31.6481 1892.71 15.8336 1902.7 0.0289917 1911.73L0.0289919 1907.83Z" fill="url(#paint6_linear_1_2474)"/>
<path d="M368.952 1969.01L368.962 1972.52L370.933 1972.5C371.505 1972.49 372.185 1972.46 372.913 1972.43C374.059 1972.38 375.418 1972.3 376.864 1972.16C379.437 1971.93 382.175 1971.55 384.786 1971.07C389.96 1970.13 395.455 1968.65 400.678 1966.78C405.969 1964.89 411.337 1962.5 416.648 1959.69C421.968 1956.86 427.375 1953.53 432.705 1949.79C454.227 1934.7 476.798 1911.08 497.972 1881.47C520.669 1849.7 543.017 1809.8 564.374 1762.87C587.188 1712.74 609.225 1653.81 629.884 1587.71C651.125 1519.73 671.308 1442.94 689.87 1359.46C708.616 1275.13 726.1 1182.19 741.846 1083.24C770.815 901.134 794.794 692.956 813.123 464.507C820.316 374.824 826.811 279.851 832.442 182.237C836.907 104.554 840.849 25.3071 844.489 -60.0359C847.052 -120.167 849.382 -181.192 851.819 -252.08C853.654 -305.648 855.149 -352.694 856.42 -392.991C857.624 -431.367 858.576 -469.053 859.236 -505.002C859.886 -540.514 860.265 -573.425 860.352 -602.791C860.42 -631.566 860.226 -654.205 859.731 -670.146C859.478 -678.242 859.148 -684.436 858.76 -688.552C858.556 -690.717 858.323 -692.396 858.061 -693.532C857.683 -695.221 856.877 -695.978 856.721 -696.104L855.042 -693.241C854.964 -693.309 855.139 -693.115 855.246 -692.619C855.391 -691.949 855.624 -690.639 855.857 -688.154C856.246 -684.125 856.566 -678.028 856.809 -670.009C857.304 -654.108 857.508 -631.498 857.43 -602.791C857.343 -573.444 856.964 -540.553 856.314 -505.061C855.654 -469.131 854.702 -431.474 853.498 -393.108C852.227 -352.82 850.741 -305.775 848.897 -252.216C846.46 -181.337 844.13 -120.323 841.567 -60.2012C837.936 25.1226 833.995 104.35 829.52 182.004C823.899 279.589 817.404 374.533 810.21 464.187C791.891 692.529 767.922 900.6 738.973 1082.6C723.236 1181.46 705.772 1274.32 687.035 1358.58C668.502 1441.94 648.349 1518.63 627.146 1586.5C606.536 1652.44 584.557 1711.22 561.811 1761.21C540.541 1807.93 518.32 1847.63 495.748 1879.2C474.789 1908.51 452.47 1931.88 431.229 1946.78C425.987 1950.45 420.676 1953.72 415.463 1956.49C410.26 1959.25 405.008 1961.59 399.833 1963.44C394.746 1965.27 389.388 1966.71 384.339 1967.63C381.815 1968.08 379.146 1968.45 376.641 1968.67C375.233 1968.8 373.923 1968.89 372.797 1968.94C372.088 1968.98 371.437 1968.99 370.874 1969L368.952 1969.01Z" fill="url(#paint7_linear_1_2474)"/>
<path d="M948.703 -694.677L948.703 1970.77L945.781 1970.77L945.781 -694.677L948.703 -694.677Z" fill="url(#paint8_linear_1_2474)"/>
<path d="M1034.15 -614.742C1034.15 -610.878 1034.16 -606.898 1034.17 -602.791C1034.26 -573.415 1034.64 -540.514 1035.29 -505.002C1035.95 -469.054 1036.9 -431.367 1038.1 -392.992C1039.38 -352.694 1040.86 -305.658 1042.71 -252.08C1045.14 -181.24 1047.47 -120.226 1050.04 -60.036C1053.68 25.3944 1057.62 104.641 1062.08 182.237C1067.7 279.851 1074.21 374.824 1081.4 464.507C1099.73 692.965 1123.71 901.134 1152.68 1083.24C1168.4 1182.19 1185.89 1275.13 1204.64 1359.46C1223.2 1442.94 1243.38 1519.73 1264.62 1587.71C1285.28 1653.81 1307.32 1712.73 1330.13 1762.87C1351.49 1809.81 1373.84 1849.71 1396.53 1881.47C1417.71 1911.08 1440.28 1934.7 1461.8 1949.79C1467.14 1953.53 1472.54 1956.86 1477.86 1959.69C1483.17 1962.5 1488.55 1964.89 1493.83 1966.78C1499.05 1968.65 1504.54 1970.13 1509.72 1971.07C1512.32 1971.55 1515.06 1971.92 1517.63 1972.16C1519.08 1972.3 1520.44 1972.38 1521.58 1972.43C1522.3 1972.47 1522.98 1972.49 1523.55 1972.5L1525.52 1972.52L1525.53 1969.01L1523.61 1969C1523.05 1968.99 1522.4 1968.97 1521.7 1968.93C1520.57 1968.88 1519.26 1968.79 1517.85 1968.67C1515.35 1968.43 1512.68 1968.07 1510.16 1967.62C1505.11 1966.69 1499.75 1965.25 1494.66 1963.43C1489.5 1961.58 1484.24 1959.24 1479.04 1956.48C1473.82 1953.71 1468.52 1950.44 1463.27 1946.77C1442.02 1931.87 1419.71 1908.5 1398.75 1879.19C1376.18 1847.62 1353.95 1807.91 1332.68 1761.2C1309.94 1711.21 1287.96 1652.43 1267.35 1586.49C1246.14 1518.62 1225.99 1441.93 1207.46 1358.57C1188.73 1274.31 1171.26 1181.46 1155.52 1082.59C1126.57 900.59 1102.6 692.529 1084.29 464.177C1077.09 374.523 1070.6 279.589 1064.98 181.994C1060.51 104.427 1056.57 25.2001 1052.93 -60.211C1050.37 -120.391 1048.04 -181.396 1045.61 -252.226C1043.77 -305.794 1042.28 -352.83 1041.01 -393.118C1039.79 -431.474 1038.85 -469.141 1038.19 -505.071C1037.54 -540.563 1037.16 -573.454 1037.08 -602.801C1037 -631.459 1037.2 -654.088 1037.69 -670.019C1037.94 -678.048 1038.26 -684.145 1038.65 -688.164C1038.88 -690.649 1039.11 -691.969 1039.26 -692.629C1039.37 -693.124 1039.53 -693.309 1039.54 -693.318L1037.78 -696.115C1037.63 -695.979 1036.82 -695.231 1036.44 -693.542C1036.19 -692.406 1035.95 -690.726 1035.75 -688.562C1035.36 -684.465 1035.03 -678.271 1034.77 -670.155C1034.36 -656.467 1034.15 -637.856 1034.15 -614.742Z" fill="url(#paint9_linear_1_2474)"/>
<path d="M1129.76 -692.251C1129.37 -691.387 1128.94 -689.823 1128.58 -687.969C1127.84 -684.018 1127.18 -677.795 1126.69 -669.951C1125.72 -654.36 1125.3 -631.148 1125.46 -602.811C1125.63 -573.424 1126.38 -540.543 1127.68 -505.08C1129 -469.209 1130.89 -431.561 1133.31 -393.195C1136.13 -348.47 1138.95 -304.037 1142.5 -252.303C1147.36 -181.648 1152.02 -120.653 1157.15 -60.3468C1164.43 25.0157 1172.31 104.223 1181.24 181.81C1192.47 279.337 1205.46 374.281 1219.86 464.002C1256.49 692.276 1304.4 900.27 1362.26 1082.19C1424.21 1276.8 1501.55 1451.02 1585.89 1586.03C1663.88 1710.79 1757.24 1814.75 1848.75 1878.8C1870.26 1893.83 1892.2 1907.21 1913.97 1918.57C1916.05 1919.66 1918.15 1920.65 1920.23 1921.7L1920.23 1925.49C1917.76 1924.25 1915.27 1923.07 1912.81 1921.79C1890.92 1910.37 1868.88 1896.92 1847.28 1881.82C1755.44 1817.55 1661.78 1713.26 1583.56 1588.14C1499.05 1452.88 1421.59 1278.36 1359.55 1083.44C1301.62 901.328 1253.65 693.14 1216.99 464.662C1202.59 374.873 1189.59 279.87 1178.36 182.285C1169.43 104.66 1161.54 25.4138 1154.26 -59.9972C1149.12 -120.323 1144.47 -181.347 1139.61 -252.022C1136.06 -303.765 1133.22 -348.199 1130.41 -392.933C1127.99 -431.348 1126.1 -469.024 1124.78 -504.934C1123.47 -540.437 1122.72 -573.366 1122.55 -602.791C1122.53 -606.878 1122.52 -610.839 1122.52 -614.674C1122.52 -637.915 1122.94 -656.574 1123.79 -670.223C1124.28 -678.232 1124.96 -684.639 1125.75 -688.756C1126.17 -690.969 1126.67 -692.755 1127.2 -693.91C1127.52 -694.619 1127.87 -695.192 1128.28 -695.619C1128.9 -696.25 1129.66 -696.396 1129.87 -696.425L1130.2 -692.959C1130.15 -692.93 1129.97 -692.736 1129.76 -692.251Z" fill="url(#paint10_linear_1_2474)"/>
<path d="M1220.94 -692.765C1220.81 -692.678 1220.55 -692.454 1220.23 -691.989C1219.65 -691.144 1219.03 -689.62 1218.51 -687.794C1217.4 -683.94 1216.4 -677.582 1215.69 -669.893C1214.25 -654.341 1213.62 -631.139 1213.85 -602.82C1214.1 -573.463 1215.23 -540.582 1217.19 -505.071C1219.17 -469.161 1222.01 -431.542 1225.62 -393.263C1229.05 -357.062 1233.74 -307.493 1239.42 -252.391C1246.7 -181.784 1253.68 -120.808 1261.38 -60.5022C1272.29 24.87 1284.11 104.058 1297.49 181.596C1314.34 279.113 1333.83 374.077 1355.42 463.846C1464.15 915.463 1669.4 1334.88 1904.44 1585.78C1909.66 1591.35 1914.95 1596.79 1920.23 1602.26L1920.23 1606.9C1914.3 1600.77 1908.36 1594.64 1902.51 1588.39C1779.84 1457.47 1667.91 1287.09 1569.84 1082.01C1479.42 892.94 1404.31 679.519 1352.62 464.827C1331 374.97 1311.49 279.919 1294.64 182.314C1281.24 104.718 1269.42 25.4719 1258.5 -59.9585C1250.79 -120.303 1243.8 -181.309 1236.52 -251.944C1230.84 -307.066 1226.14 -356.645 1222.71 -392.856C1219.09 -431.193 1216.25 -468.86 1214.27 -504.828C1212.31 -540.408 1211.18 -573.356 1210.93 -602.782C1210.9 -606.723 1210.88 -610.567 1210.88 -614.315C1210.88 -637.565 1211.53 -656.758 1212.79 -670.281C1213.54 -678.329 1214.57 -684.775 1215.75 -688.93C1216.4 -691.192 1217.16 -693.008 1217.96 -694.183C1218.42 -694.882 1218.94 -695.425 1219.48 -695.804C1220.23 -696.318 1221.14 -696.416 1221.31 -696.435L1221.52 -692.94C1221.33 -692.92 1221.04 -692.843 1220.94 -692.765Z" fill="url(#paint11_linear_1_2474)"/>
<path d="M1312.27 -692.872C1312.12 -692.833 1311.95 -692.775 1311.76 -692.678C1311.51 -692.552 1311.13 -692.299 1310.69 -691.804C1310.24 -691.299 1309.34 -690.086 1308.4 -687.63C1306.97 -683.853 1305.61 -677.358 1304.67 -669.825C1302.75 -654.253 1301.9 -631.08 1302.22 -602.82C1302.56 -573.434 1304.06 -540.524 1306.67 -505.032C1309.31 -469.161 1313.09 -431.571 1317.92 -393.322C1323.57 -348.49 1329.23 -303.979 1336.31 -252.459C1346.01 -181.843 1355.31 -120.896 1365.58 -60.6575C1380.12 24.6856 1395.86 103.854 1413.71 181.363C1436.16 278.909 1462.16 373.902 1490.96 463.711C1564.15 691.791 1659.89 899.61 1775.51 1081.42C1820.02 1151.35 1868.56 1218.6 1920.23 1282.4L1920.23 1287.44C1867.68 1222.78 1818.38 1154.53 1773.19 1083.54C1657.41 901.474 1561.53 693.353 1488.25 464.963C1459.4 375.047 1433.39 279.938 1410.89 182.285C1393.04 104.689 1377.27 25.4525 1362.72 -59.9683C1352.45 -120.245 1343.14 -181.241 1333.43 -251.896C1326.35 -303.435 1320.69 -347.956 1315.04 -392.798C1310.2 -431.115 1306.41 -468.782 1303.76 -504.721C1301.14 -540.31 1299.65 -573.298 1299.31 -602.772C1299.26 -606.723 1299.24 -610.577 1299.24 -614.334C1299.24 -637.575 1300.11 -656.777 1301.79 -670.34C1302.78 -678.3 1304.19 -684.96 1305.76 -689.086C1306.63 -691.348 1307.65 -693.163 1308.72 -694.367C1309.32 -695.027 1309.95 -695.542 1310.62 -695.881C1311.01 -696.085 1311.37 -696.211 1311.69 -696.289C1312.14 -696.406 1312.77 -696.425 1312.77 -696.425L1312.84 -692.921C1312.8 -692.93 1312.49 -692.92 1312.27 -692.872Z" fill="url(#paint12_linear_1_2474)"/>
<path d="M1403.4 -692.853C1403.17 -692.804 1402.92 -692.736 1402.65 -692.629C1402.15 -692.416 1401.65 -692.095 1401.18 -691.678C1400.49 -691.047 1399.42 -689.814 1398.31 -687.484C1396.52 -683.727 1394.83 -677.261 1393.66 -669.757C1391.25 -654.224 1390.19 -631.081 1390.6 -602.821C1391.03 -573.347 1392.9 -540.427 1396.17 -504.964C1399.47 -469.131 1404.19 -431.581 1410.21 -393.37C1417.29 -348.49 1424.37 -303.94 1433.2 -252.527C1445.34 -181.921 1456.95 -121.003 1469.77 -60.8325C1487.94 24.4523 1507.6 103.592 1529.9 181.11C1557.99 278.715 1590.49 373.756 1626.51 463.594C1703.34 655.133 1804.03 838.42 1920.22 999.34L1920.22 1004.71C1802.92 842.818 1701.31 658.142 1623.88 465.118C1587.81 375.164 1555.26 279.996 1527.14 182.256C1504.81 104.64 1485.12 25.4135 1466.94 -59.9684C1454.11 -120.197 1442.48 -181.153 1430.34 -251.828C1421.5 -303.27 1414.42 -347.83 1407.34 -392.73C1401.3 -431.028 1396.56 -468.666 1393.25 -504.585C1389.98 -540.146 1388.1 -573.182 1387.67 -602.762C1387.61 -606.714 1387.58 -610.558 1387.58 -614.305C1387.58 -637.585 1388.67 -656.817 1390.78 -670.398C1392 -678.271 1393.82 -685.135 1395.77 -689.222C1396.85 -691.474 1398.11 -693.299 1399.43 -694.484C1400.14 -695.115 1400.89 -695.6 1401.68 -695.93C1402.13 -696.115 1402.54 -696.231 1402.9 -696.299C1403.42 -696.406 1404.14 -696.425 1404.14 -696.425L1404.19 -692.921C1404.18 -692.93 1403.73 -692.921 1403.4 -692.853Z" fill="url(#paint13_linear_1_2474)"/>
<path d="M1494.54 -692.852C1494.25 -692.804 1493.91 -692.726 1493.56 -692.6C1492.91 -692.377 1492.28 -692.037 1491.69 -691.6C1490.84 -690.969 1489.55 -689.726 1488.21 -687.367C1486.07 -683.63 1484.04 -677.184 1482.64 -669.709C1479.8 -654.419 1478.51 -630.663 1478.97 -602.84C1479.49 -573.328 1481.74 -540.379 1485.66 -504.915C1489.62 -469.141 1495.29 -431.639 1502.51 -393.458C1510.97 -348.694 1519.46 -304.241 1530.09 -252.633C1544.62 -182.114 1558.56 -121.245 1573.94 -61.0557C1595.72 24.2 1619.31 103.311 1646.06 180.81C1679.77 278.462 1718.79 373.552 1762.04 463.458C1808.75 560.499 1861.9 654.444 1920.22 743.301L1920.22 748.912C1860.92 658.909 1806.89 563.654 1759.52 465.205C1716.2 375.173 1677.13 279.948 1643.36 182.149C1616.59 104.553 1592.96 25.3358 1571.14 -60.0267C1555.75 -120.284 1541.8 -181.212 1527.24 -251.789C1516.59 -303.426 1508.12 -347.898 1499.65 -392.681C1492.41 -430.969 1486.73 -468.578 1482.75 -504.459C1478.82 -540.058 1476.56 -573.133 1476.04 -602.772C1475.98 -606.568 1475.95 -610.286 1475.95 -613.917C1475.95 -637.206 1477.28 -657.02 1479.78 -670.476C1481.26 -678.378 1483.44 -685.261 1485.79 -689.358C1487.08 -691.61 1488.59 -693.416 1490.14 -694.58C1490.95 -695.192 1491.83 -695.658 1492.74 -695.969C1493.25 -696.143 1493.71 -696.25 1494.12 -696.318C1494.71 -696.415 1495.53 -696.435 1495.53 -696.435L1495.58 -692.93C1495.58 -692.93 1494.97 -692.92 1494.54 -692.852Z" fill="url(#paint14_linear_1_2474)"/>
<path d="M1586.31 -692.911C1586.13 -692.901 1585.92 -692.882 1585.69 -692.843C1585.33 -692.794 1584.92 -692.707 1584.48 -692.581C1583.7 -692.348 1582.93 -691.989 1582.21 -691.542C1580.74 -690.61 1579.37 -689.173 1578.09 -687.27C1575.6 -683.533 1573.24 -677.106 1571.62 -669.65C1568.31 -654.389 1566.77 -630.682 1567.35 -602.85C1567.95 -573.279 1570.57 -540.311 1575.15 -504.838C1579.76 -469.132 1586.37 -431.688 1594.79 -393.516C1604.66 -348.752 1614.56 -304.299 1626.96 -252.711C1643.92 -182.202 1660.17 -121.362 1678.09 -61.2595C1703.5 23.9962 1731.01 103.078 1762.19 180.518C1801.54 278.249 1847.09 373.416 1897.57 463.351C1904.98 476.545 1912.53 489.67 1920.21 502.746L1920.21 508.794C1911.7 494.368 1903.33 479.884 1895.15 465.312C1844.59 375.232 1798.97 279.938 1759.56 182.043C1728.33 104.495 1700.79 25.2873 1675.34 -60.0751C1657.4 -120.255 1641.14 -181.153 1624.16 -251.74C1611.74 -303.368 1601.85 -347.83 1591.97 -392.623C1583.52 -430.911 1576.89 -468.481 1572.26 -504.304C1567.66 -539.922 1565.02 -573.056 1564.42 -602.772C1564.34 -606.548 1564.3 -610.257 1564.3 -613.888C1564.3 -637.226 1565.85 -657.069 1568.78 -670.543C1570.5 -678.465 1573.06 -685.368 1575.8 -689.474C1577.32 -691.755 1579.02 -693.493 1580.83 -694.649C1581.75 -695.241 1582.74 -695.697 1583.77 -695.998C1584.34 -696.163 1584.87 -696.27 1585.33 -696.338C1585.62 -696.386 1585.89 -696.406 1586.13 -696.425C1586.47 -696.445 1586.93 -696.454 1586.93 -696.454L1586.95 -692.95L1586.31 -692.911Z" fill="url(#paint15_linear_1_2474)"/>
<path d="M1677.58 -692.911C1677.37 -692.901 1677.12 -692.882 1676.85 -692.843C1676.44 -692.785 1675.95 -692.707 1675.44 -692.571C1674.51 -692.328 1673.61 -691.969 1672.77 -691.494C1671.06 -690.542 1669.46 -689.086 1668 -687.174C1665.16 -683.446 1662.47 -677.038 1660.61 -669.583C1656.88 -654.555 1655.09 -630.256 1655.74 -602.84C1656.43 -573.192 1659.44 -540.175 1664.67 -504.731C1669.93 -469.141 1677.47 -431.746 1687.1 -393.565C1698.4 -348.733 1709.72 -304.222 1723.86 -252.789C1743.21 -182.387 1761.76 -121.595 1782.24 -61.4635C1811.27 23.7437 1842.69 102.806 1878.29 180.227C1891.63 209.225 1905.67 237.961 1920.22 266.434L1920.22 273.113C1904.76 243.009 1889.86 212.613 1875.74 181.926C1840.07 104.378 1808.61 25.1999 1779.54 -60.1335C1759.04 -120.343 1740.46 -181.212 1721.09 -251.692C1706.95 -303.164 1695.62 -347.694 1684.3 -392.555C1674.64 -430.863 1667.07 -468.404 1661.79 -504.129C1656.52 -539.748 1653.51 -572.93 1652.81 -602.753C1652.72 -606.393 1652.68 -609.966 1652.68 -613.48C1652.68 -636.808 1654.49 -657.224 1657.8 -670.583C1659.78 -678.533 1662.7 -685.436 1665.83 -689.542C1667.55 -691.795 1669.47 -693.523 1671.52 -694.668C1672.56 -695.251 1673.66 -695.687 1674.8 -695.988C1675.44 -696.153 1676.03 -696.251 1676.53 -696.318C1676.86 -696.357 1677.16 -696.387 1677.43 -696.396C1677.79 -696.416 1678.32 -696.425 1678.32 -696.425L1678.34 -692.921L1677.58 -692.911Z" fill="url(#paint16_linear_1_2474)"/>
<path d="M1768.86 -692.911C1768.6 -692.901 1768.32 -692.872 1768.01 -692.843C1767.54 -692.785 1766.97 -692.707 1766.38 -692.562C1765.32 -692.319 1764.29 -691.95 1763.32 -691.465C1761.38 -690.503 1759.56 -689.028 1757.9 -687.106C1754.7 -683.378 1751.67 -676.97 1749.59 -669.534C1745.4 -654.516 1743.41 -630.227 1744.11 -602.86C1744.89 -573.134 1748.28 -540.088 1754.17 -504.634C1760.08 -469.122 1768.56 -431.766 1779.38 -393.623C1792.1 -348.782 1804.83 -304.27 1820.74 -252.867C1842.5 -182.493 1863.35 -121.741 1886.37 -61.6675C1897.31 -33.1065 1908.59 -5.28339 1920.22 22.0641L1920.22 29.811C1907.65 0.454027 1895.51 -29.466 1883.72 -60.2113C1860.67 -120.362 1839.79 -181.192 1818.01 -251.653C1802.1 -303.106 1789.35 -347.636 1776.62 -392.497C1765.77 -430.785 1757.25 -468.278 1751.31 -503.945C1745.38 -539.583 1741.98 -572.823 1741.2 -602.743C1741.1 -606.393 1741.06 -609.985 1741.06 -613.509C1741.06 -636.838 1743.1 -657.273 1746.83 -670.641C1749.05 -678.592 1752.34 -685.504 1755.87 -689.61C1757.79 -691.853 1759.92 -693.562 1762.22 -694.697C1763.37 -695.27 1764.58 -695.707 1765.85 -695.998C1766.55 -696.153 1767.2 -696.26 1767.76 -696.328C1768.12 -696.367 1768.46 -696.396 1768.75 -696.406C1769.17 -696.425 1769.74 -696.435 1769.74 -696.435L1769.76 -692.931L1768.86 -692.911Z" fill="url(#paint17_linear_1_2474)"/>
<path d="M1920.23 95.0685L1920.23 98.5732L0.02771 98.5732L0.0277101 95.0685L1920.23 95.0685Z" fill="#4D4D4D"/>
<path d="M1920.23 247.504L1920.23 251.009L0.02771 251.008L0.0277101 247.504L1920.23 247.504Z" fill="#4D4D4D"/>
<path d="M1920.23 426.694L1920.23 430.198L0.02771 430.198L0.0277101 426.694L1920.23 426.694Z" fill="#4D4D4D"/>
<path d="M1920.23 635.019L1920.23 638.523L0.02771 638.523L0.0277101 635.019L1920.23 635.019Z" fill="#4D4D4D"/>
<path d="M1920.23 873.146L1920.23 876.65L0.02771 876.65L0.0277101 873.146L1920.23 873.146Z" fill="#4D4D4D"/>
</g>
</g>
<defs>
<linearGradient id="paint0_linear_1_2474" x1="119.715" y1="-730.65" x2="119.715" y2="221.408" gradientUnits="userSpaceOnUse">
<stop stop-color="white"/>
<stop offset="1" stop-color="#222222" stop-opacity="0.28"/>
</linearGradient>
<linearGradient id="paint1_linear_1_2474" x1="163.449" y1="-739.69" x2="163.449" y2="463.858" gradientUnits="userSpaceOnUse">
<stop stop-color="white"/>
<stop offset="1" stop-color="#222222" stop-opacity="0.28"/>
</linearGradient>
<linearGradient id="paint2_linear_1_2474" x1="207.205" y1="-748.84" x2="207.205" y2="708.706" gradientUnits="userSpaceOnUse">
<stop stop-color="white"/>
<stop offset="1" stop-color="#222222" stop-opacity="0.28"/>
</linearGradient>
<linearGradient id="paint3_linear_1_2474" x1="250.937" y1="-758.522" x2="250.937" y2="968.093" gradientUnits="userSpaceOnUse">
<stop stop-color="white"/>
<stop offset="1" stop-color="#222222" stop-opacity="0.28"/>
</linearGradient>
<linearGradient id="paint4_linear_1_2474" x1="294.689" y1="-769.181" x2="294.689" y2="1254.76" gradientUnits="userSpaceOnUse">
<stop stop-color="white"/>
<stop offset="1" stop-color="#222222" stop-opacity="0.28"/>
</linearGradient>
<linearGradient id="paint5_linear_1_2474" x1="338.403" y1="-781.279" x2="338.403" y2="1579.2" gradientUnits="userSpaceOnUse">
<stop stop-color="white"/>
<stop offset="1" stop-color="#222222" stop-opacity="0.28"/>
</linearGradient>
<linearGradient id="paint6_linear_1_2474" x1="382.163" y1="-793.65" x2="382.163" y2="1911.23" gradientUnits="userSpaceOnUse">
<stop stop-color="white"/>
<stop offset="1" stop-color="#222222" stop-opacity="0.28"/>
</linearGradient>
<linearGradient id="paint7_linear_1_2474" x1="612.212" y1="-795.594" x2="612.212" y2="1972.01" gradientUnits="userSpaceOnUse">
<stop stop-color="white"/>
<stop offset="1" stop-color="#222222" stop-opacity="0.28"/>
</linearGradient>
<linearGradient id="paint8_linear_1_2474" x1="947.228" y1="-794.048" x2="947.207" y2="1970.26" gradientUnits="userSpaceOnUse">
<stop stop-color="white"/>
<stop offset="1" stop-color="#222222" stop-opacity="0.28"/>
</linearGradient>
<linearGradient id="paint9_linear_1_2474" x1="1277.4" y1="-795.604" x2="1277.4" y2="1972.01" gradientUnits="userSpaceOnUse">
<stop stop-color="white"/>
<stop offset="1" stop-color="#222222" stop-opacity="0.28"/>
</linearGradient>
<linearGradient id="paint10_linear_1_2474" x1="1517.4" y1="-794.173" x2="1517.4" y2="1924.99" gradientUnits="userSpaceOnUse">
<stop stop-color="white"/>
<stop offset="1" stop-color="#222222" stop-opacity="0.28"/>
</linearGradient>
<linearGradient id="paint11_linear_1_2474" x1="1562.02" y1="-782.305" x2="1562.02" y2="1606.46" gradientUnits="userSpaceOnUse">
<stop stop-color="white"/>
<stop offset="1" stop-color="#222222" stop-opacity="0.28"/>
</linearGradient>
<linearGradient id="paint12_linear_1_2474" x1="1606.64" y1="-770.386" x2="1606.64" y2="1287.07" gradientUnits="userSpaceOnUse">
<stop stop-color="white"/>
<stop offset="1" stop-color="#222222" stop-opacity="0.28"/>
</linearGradient>
<linearGradient id="paint13_linear_1_2474" x1="1651.25" y1="-759.845" x2="1651.25" y2="1004.38" gradientUnits="userSpaceOnUse">
<stop stop-color="white"/>
<stop offset="1" stop-color="#222222" stop-opacity="0.28"/>
</linearGradient>
<linearGradient id="paint14_linear_1_2474" x1="1695.87" y1="-750.319" x2="1695.87" y2="748.637" gradientUnits="userSpaceOnUse">
<stop stop-color="white"/>
<stop offset="1" stop-color="#222222" stop-opacity="0.28"/>
</linearGradient>
<linearGradient id="paint15_linear_1_2474" x1="1740.48" y1="-741.387" x2="1740.48" y2="508.565" gradientUnits="userSpaceOnUse">
<stop stop-color="white"/>
<stop offset="1" stop-color="#222222" stop-opacity="0.28"/>
</linearGradient>
<linearGradient id="paint16_linear_1_2474" x1="1785.12" y1="-732.571" x2="1785.12" y2="272.928" gradientUnits="userSpaceOnUse">
<stop stop-color="white"/>
<stop offset="1" stop-color="#222222" stop-opacity="0.28"/>
</linearGradient>
<linearGradient id="paint17_linear_1_2474" x1="1829.75" y1="-723.51" x2="1829.75" y2="29.6726" gradientUnits="userSpaceOnUse">
<stop stop-color="white"/>
<stop offset="1" stop-color="#222222" stop-opacity="0.28"/>
</linearGradient>
<clipPath id="clip0_1_2474">
<rect width="1021" height="1920" fill="white" transform="translate(1920) rotate(90)"/>
</clipPath>
</defs>
</svg>
