<svg width="96" height="94" viewBox="0 0 96 94" fill="none" xmlns="http://www.w3.org/2000/svg">
<g id="shape_90" opacity="0.2">
<path id="Vector" d="M21.3798 8.87396C21.3798 11.2105 20.4515 13.4514 18.7993 15.1036C17.1471 16.7558 14.9063 17.684 12.5697 17.684C10.2331 17.684 7.99228 16.7558 6.34009 15.1036C4.68789 13.4514 3.75977 11.2105 3.75977 8.87396C3.75977 6.53741 4.68789 4.29654 6.34009 2.64435C7.99228 0.992153 10.2331 0.0639648 12.5697 0.0639648C14.9063 0.0639648 17.1471 0.992153 18.7993 2.64435C20.4515 4.29654 21.3798 6.53741 21.3798 8.87396Z" fill="#1D68FF"/>
<path id="Vector_2" d="M84.6768 19.9913C83.4095 19.8087 82.1916 19.3706 81.0928 18.702C79.994 18.0334 79.0358 17.1473 78.2727 16.0945C77.5097 15.0417 76.957 13.8427 76.6459 12.5659C76.3349 11.2892 76.2716 9.95972 76.4599 8.65343C76.6481 7.34714 77.0841 6.0896 77.743 4.95263C78.4018 3.81565 79.2708 2.8215 80.3 2.02694C81.3292 1.23237 82.4985 0.65295 83.7414 0.321766C84.9842 -0.00941893 86.2762 -0.0858848 87.5435 0.0967291C88.8108 0.279349 90.0287 0.71748 91.1275 1.3861C92.2263 2.05471 93.1845 2.94073 93.9476 3.99355C94.7106 5.04637 95.2633 6.24537 95.5744 7.52211C95.8854 8.79886 95.9487 10.1283 95.7604 11.4346C95.5722 12.7409 95.1362 13.9985 94.4773 15.1354C93.8185 16.2724 92.9497 17.2666 91.9205 18.0611C90.8912 18.8557 89.7218 19.4351 88.4789 19.7663C87.2361 20.0975 85.9441 20.1739 84.6768 19.9913Z" fill="#10069F"/>
<path id="Vector_3" d="M57.79 48.2141C57.79 52.2056 56.2044 56.0336 53.382 58.856C50.5595 61.6784 46.7315 63.2641 42.74 63.2641C38.7485 63.2641 34.9204 61.6784 32.098 58.856C29.2756 56.0336 27.6899 52.2056 27.6899 48.2141C27.6899 44.2225 29.2756 40.3945 32.098 37.5721C34.9204 34.7497 38.7485 33.1641 42.74 33.1641C46.7315 33.1641 50.5595 34.7497 53.382 37.5721C56.2044 40.3945 57.79 44.2225 57.79 48.2141Z" fill="#FDD702"/>
<path id="Vector_4" d="M14.78 84.0841C14.78 86.044 14.0014 87.9237 12.6155 89.3096C11.2296 90.6955 9.34996 91.4741 7.39001 91.4741C5.43006 91.4741 3.55032 90.6955 2.16443 89.3096C0.778535 87.9237 0 86.044 0 84.0841C0 82.1241 0.778535 80.2445 2.16443 78.8586C3.55032 77.4727 5.43006 76.6941 7.39001 76.6941C9.34996 76.6941 11.2296 77.4727 12.6155 78.8586C14.0014 80.2445 14.78 82.1241 14.78 84.0841Z" fill="#001133"/>
<path id="Vector_5" d="M87.3199 85.784C87.3199 87.8156 86.5129 89.7639 85.0764 91.2005C83.6399 92.637 81.6916 93.444 79.66 93.444C77.6285 93.444 75.6801 92.637 74.2435 91.2005C72.807 89.7639 72 87.8156 72 85.784C72 83.7525 72.807 81.8041 74.2435 80.3676C75.6801 78.9311 77.6285 78.124 79.66 78.124C81.6916 78.124 83.6399 78.9311 85.0764 80.3676C86.5129 81.8041 87.3199 83.7525 87.3199 85.784Z" fill="#FF5215"/>
</g>
</svg>
